<?xml version="1.0" standalone="no"?>
<!DOCTYPE svg PUBLIC "-//W3C//DTD SVG 20010904//EN"
 "http://www.w3.org/TR/2001/REC-SVG-20010904/DTD/svg10.dtd">
<svg version="1.0" xmlns="http://www.w3.org/2000/svg"
 width="200.000000pt" height="100.000000pt" viewBox="0 0 200.000000 100.000000"
 preserveAspectRatio="xMidYMid meet">

<g transform="translate(0.000000,100.000000) scale(0.100000,-0.100000)"
fill="#000000" stroke="none">
<path d="M856 982 c-5 -15 -156 -761 -156 -769 0 -2 34 -3 75 -3 69 0 75 2 80
23 6 25 85 419 85 424 0 2 37 3 83 3 97 0 127 -14 127 -61 0 -17 -16 -107 -35
-200 -19 -94 -35 -175 -35 -180 0 -6 32 -9 77 -7 l77 3 38 185 c20 102 37 211
38 243 0 54 -3 62 -33 92 -39 39 -102 55 -222 55 -47 0 -85 4 -85 8 0 4 9 48
20 98 11 49 20 92 20 97 0 4 -33 7 -74 7 -63 0 -76 -3 -80 -18z"/>
<path d="M155 768 c-3 -13 -37 -180 -75 -371 -39 -192 -73 -360 -76 -373 l-6
-25 78 3 78 3 20 100 21 100 125 6 c146 6 192 22 258 90 76 78 122 209 107
308 -9 56 -19 77 -58 119 -48 50 -104 62 -299 62 -166 0 -168 0 -173 -22z
m348 -136 c27 -28 29 -102 4 -178 -30 -87 -67 -108 -210 -120 -75 -7 -79 -6
-74 12 3 10 18 80 32 154 14 74 28 141 31 149 3 10 25 12 99 9 82 -3 98 -7
118 -26z"/>
<path d="M1461 738 c-6 -29 -42 -207 -80 -395 l-68 -343 76 0 77 0 18 92 c10
51 21 98 23 104 3 8 48 13 127 16 109 3 128 7 179 32 115 56 197 210 185 350
-6 75 -36 125 -93 161 l-48 30 -193 3 -192 4 -11 -54z m322 -89 c48 -13 61
-44 53 -119 -8 -66 -41 -137 -78 -163 -28 -21 -201 -47 -215 -33 -6 6 41 277
55 314 5 15 131 16 185 1z"/>
</g>
</svg>
